<svg width="800" height="560" viewBox="0 0 680 520" xmlns="http://www.w3.org/2000/svg">
<style>
  text{font-family:Arial,sans-serif}
  .tl{font-size:16px;font-weight:700;fill:#1D9E75}
  .lb{font-size:13px;font-weight:700}
  .sb{font-size:11px;fill:#555}
  .tb{fill:#E1F5EE;stroke:#0F6E56;stroke-width:1}
  .pb{fill:#EEEDFE;stroke:#3C3489;stroke-width:1}
  .cb{fill:#FAECE7;stroke:#993C1D;stroke-width:1}
  .ab{fill:#FAEEDA;stroke:#854F0B;stroke-width:1}
  .gb{fill:#F1EFE8;stroke:#5F5E5A;stroke-width:1}
</style>
<defs><marker id="a" viewBox="0 0 10 10" refX="8" refY="5" markerWidth="6" markerHeight="6" orient="auto-start-reverse"><path d="M2 1L8 5L2 9" fill="none" stroke="#999" stroke-width="1.5" stroke-linecap="round" stroke-linejoin="round"/></marker></defs>
<text class="tl" x="340" y="18" text-anchor="middle">MINERVA — System Architecture</text>
<rect class="tb" x="50" y="30" width="240" height="56" rx="8"/><text class="lb" x="170" y="54" text-anchor="middle" dominant-baseline="central" fill="#0F6E56">Streamlit Frontend</text><text class="sb" x="170" y="72" text-anchor="middle" dominant-baseline="central">7-tab interactive demo</text>
<rect class="tb" x="390" y="30" width="240" height="56" rx="8"/><text class="lb" x="510" y="54" text-anchor="middle" dominant-baseline="central" fill="#0F6E56">FastAPI REST API</text><text class="sb" x="510" y="72" text-anchor="middle" dominant-baseline="central">12 endpoints, auto-documented</text>
<line x1="170" y1="86" x2="170" y2="102" stroke="#999" stroke-width="1" marker-end="url(#a)" fill="none"/>
<line x1="510" y1="86" x2="510" y2="102" stroke="#999" stroke-width="1" marker-end="url(#a)" fill="none"/>
<rect class="pb" x="50" y="102" width="580" height="56" rx="8"/><text class="lb" x="340" y="126" text-anchor="middle" dominant-baseline="central" fill="#3C3489">MINERVA Orchestrator</text><text class="sb" x="340" y="144" text-anchor="middle" dominant-baseline="central">Intent classification · Agent routing · Response assembly</text>
<line x1="340" y1="158" x2="340" y2="174" stroke="#999" stroke-width="1" marker-end="url(#a)" fill="none"/>
<rect class="cb" x="50" y="174" width="272" height="66" rx="8"/><text class="lb" x="186" y="197" text-anchor="middle" dominant-baseline="central" fill="#993C1D">Adversarial Council</text><text class="sb" x="186" y="215" text-anchor="middle" dominant-baseline="central">&#9733; Hypothesis &#xB7; Skeptic &#xB7; Verdict</text>
<rect class="cb" x="362" y="174" width="268" height="66" rx="8"/><text class="lb" x="496" y="197" text-anchor="middle" dominant-baseline="central" fill="#993C1D">Temporal Archaeologist</text><text class="sb" x="496" y="215" text-anchor="middle" dominant-baseline="central">&#9733; Backward causal reasoning</text>
<rect class="cb" x="42" y="252" width="184" height="66" rx="8"/><text class="lb" x="134" y="273" text-anchor="middle" dominant-baseline="central" fill="#993C1D">Failure Horizon</text><text class="sb" x="134" y="291" text-anchor="middle" dominant-baseline="central">&#9733; Probabilistic RUL cloud</text>
<rect class="cb" x="248" y="252" width="184" height="66" rx="8"/><text class="lb" x="340" y="273" text-anchor="middle" dominant-baseline="central" fill="#993C1D">Prioritiser</text><text class="sb" x="340" y="291" text-anchor="middle" dominant-baseline="central">Risk scoring &#xB7; Scheduling</text>
<rect class="cb" x="454" y="252" width="184" height="66" rx="8"/><text class="lb" x="546" y="273" text-anchor="middle" dominant-baseline="central" fill="#993C1D">Reporter</text><text class="sb" x="546" y="291" text-anchor="middle" dominant-baseline="central">Structured reports</text>
<line x1="340" y1="318" x2="340" y2="334" stroke="#999" stroke-width="1" marker-end="url(#a)" fill="none"/>
<rect class="ab" x="40" y="334" width="138" height="56" rx="8"/><text class="lb" x="109" y="354" text-anchor="middle" dominant-baseline="central" fill="#854F0B">Anomaly Det.</text><text class="sb" x="109" y="372" text-anchor="middle" dominant-baseline="central">Isolation Forest</text>
<rect class="ab" x="194" y="334" width="138" height="56" rx="8"/><text class="lb" x="263" y="354" text-anchor="middle" dominant-baseline="central" fill="#854F0B">RUL Model</text><text class="sb" x="263" y="372" text-anchor="middle" dominant-baseline="central">Beta distribution</text>
<rect class="ab" x="348" y="334" width="138" height="56" rx="8"/><text class="lb" x="417" y="354" text-anchor="middle" dominant-baseline="central" fill="#854F0B">Equip. Genome</text><text class="sb" x="417" y="372" text-anchor="middle" dominant-baseline="central">&#9733; PCA fingerprint</text>
<rect class="ab" x="502" y="334" width="138" height="56" rx="8"/><text class="lb" x="571" y="354" text-anchor="middle" dominant-baseline="central" fill="#854F0B">Risk Scorer</text><text class="sb" x="571" y="372" text-anchor="middle" dominant-baseline="central">Composite score</text>
<line x1="340" y1="390" x2="340" y2="406" stroke="#999" stroke-width="1" marker-end="url(#a)" fill="none"/>
<rect class="gb" x="42" y="406" width="278" height="56" rx="8"/><text class="lb" x="181" y="426" text-anchor="middle" dominant-baseline="central" fill="#444441">SQLite Database</text><text class="sb" x="181" y="444" text-anchor="middle" dominant-baseline="central">Sensors &#xB7; History &#xB7; Spares &#xB7; Feedback</text>
<rect class="gb" x="360" y="406" width="278" height="56" rx="8"/><text class="lb" x="499" y="426" text-anchor="middle" dominant-baseline="central" fill="#444441">ChromaDB Vector Store</text><text class="sb" x="499" y="444" text-anchor="middle" dominant-baseline="central">Manuals &#xB7; SOPs &#xB7; Failure reports</text>
<text class="sb" x="340" y="482" text-anchor="middle" fill="#888">&#9733; = Novel innovation &#xB7; Teal: Infrastructure &#xB7; Purple: Orchestrator &#xB7; Coral: Agents &#xB7; Amber: ML Engine</text>
</svg>
